<svg width="800" height="600" xmlns="http://www.w3.org/2000/svg">
 <!-- Created with Method Draw - http://github.com/duopixel/Method-Draw/ -->
 <g>
  <title>background</title>
  <rect fill="#fff" id="canvas_background" height="602" width="802" y="-1" x="-1"/>
  <g display="none" overflow="visible" y="0" x="0" height="100%" width="100%" id="canvasGrid">
   <rect fill="url(#gridpattern)" stroke-width="0" y="0" x="0" height="100%" width="100%"/>
  </g>
 </g>
 <g>
  <title>Layer 1</title>
  <polyline stroke-linecap="round" id="svg_17" points="287.5,-68.5 304.5,-81.5 306.5,-86.5 302.5,-86.5 299.5,-85.5 297.5,-84.5 293.5,-81.5 288.5,-79.5 286.5,-78.5 284.5,-76.5 279.5,-74.5 278.5,-74.5 277.5,-74.5 276.5,-74.5 274.5,-74.5 273.5,-75.5 273.5,-74.5 272.5,-75.5 273.5,-74.5 273.5,-74.5 273.5,-74.5 273.5,-73.5 274.5,-73.5 272.5,-73.5 272.5,-73.5 272.5,-73.5 272.5,-72.5 273.5,-71.5 273.5,-71.5 273.5,-71.5 272.5,-71.5 272.5,-71.5 271.5,-71.5 271.5,-71.5 270.5,-71.5 " opacity="0.5" fill-opacity="null" stroke-opacity="null" stroke-width="1.5" stroke="#000" fill="none"/>
  <path d="m66.5,71.5c3,15 3.144295,15.934143 4,18c2.420303,5.843124 2.789848,8.078438 4,11c0.855705,2.065857 1,3 1,4c0,1 1,1 1,2c0,0 0,1 0,1c0,1 -0.707108,1.292892 0,2c0.707108,0.707108 2,0 2,-1c0,0 0,1 1,1c0,0 0,1 1,2c1,1 1,2 1,2c1,1 1,2 1,2c1,1 -0.541199,0.693436 0,2c0.382683,0.923882 0,0 0,-1l0,0" id="svg_25" fill-opacity="null" stroke-opacity="null" stroke-width="1.5" stroke="#000" fill="none"/>
  <path d="m67.5,73.5c16,-4 19,-6 23,-7c8,-2 13.988777,-4.06982 20,-5c6.9879,-1.08131 13.958473,-2.499233 23,-3c5.990814,-0.331802 10,0 19,15l-10,47l-2,0" id="svg_26" fill-opacity="null" stroke-opacity="null" stroke-width="1.5" stroke="#000" fill="none"/>
  <path stroke="#000" d="m83.5,101.5c16,-5 21.891502,-6.347595 31,-9c7.917351,-2.305542 14.071793,-3.691246 19,-5c3.056335,-0.811653 6,-1 8,-1l0,0l0,0l1,-1" id="svg_27" fill-opacity="null" stroke-opacity="null" stroke-width="1.5" fill="none"/>
  <path d="m112.5,66.5c1,17 1,19 1,22c0,5 0,8 0,11c0,3 0,6 0,8c0,2 0,4 0,6c0,1 0,2 0,3c0,0 -1,1 -1,1c0,1 0,1 0,2l-1,1l0,0l-1,0" id="svg_28" fill-opacity="null" stroke-opacity="null" stroke-width="1.5" stroke="#000" fill="none"/>
  <path d="m85.5,126.5c16,-1 17.823746,-1.486259 20,-2c2.919746,-0.689262 5,0 7,0c2,0 4,0 7,0c2,0 3.152245,0.765366 5,0c1.306564,-0.541199 2,-1 2,-1c1,0 2,0 3,0c2,0 1.823746,-0.486259 4,-1c0.973251,-0.229752 1.693436,-0.458801 3,-1c0.923874,-0.382683 2,0 3,0c0,0 1,-1 1,-1c1,0 1,0 2,0l0,0l0,-1" id="svg_29" fill-opacity="null" stroke-opacity="null" stroke-width="1.5" stroke="#000" fill="none"/>
  <path d="m60.5,147.5c8,15 9,17 12,19c3,2 6.918304,5.112137 11,8c2.943352,2.082474 7.041321,2.847229 11,4c6.072334,1.768265 10,3 13,4c3,1 7.0718,1.691238 12,3c3.056343,0.811661 7,1 10,1c5,0 8,0 12,0c2,0 6.006821,0.164963 8,0c6.062042,-0.501709 9,-1 11,-1c2,0 3,-1 5,-1c1,0 1.823746,-0.486252 4,-1c0.973251,-0.229752 1.693436,-0.458801 3,-1c0.923874,-0.38269 1.292892,-0.292892 2,-1c0.707108,-0.707108 1,0 1,-1c0,0 -1,-2 -1,-3c0,-1 -1,-2 -2,-4l-1,-3l-2,-3l-2,-5" id="svg_30" fill-opacity="null" stroke-opacity="null" stroke-width="1.5" stroke="#000" fill="none"/>
  <path d="m41.5,154.5c-6,16 -8.486256,18.823746 -9,21c-0.229752,0.973251 -0.292892,1.292892 -1,2c-0.707108,0.707108 -0.292892,0.292892 -1,1c-0.707108,0.707108 0,1 0,1l0,0l0,-1" id="svg_31" fill-opacity="null" stroke-opacity="null" stroke-width="1.5" stroke="#000" fill="none"/>
  <path d="m111.5,154.5c13,9 14.585785,8.585785 16,10c0.707108,0.707108 1,1 2,2c0,0 1,0 1,1c0,0 1,0 1,0l1,0l0,-1l0,-1" id="svg_32" fill-opacity="null" stroke-opacity="null" stroke-width="1.5" stroke="#000" fill="none"/>
  <path d="m184.5,154.5c12,9 13.292892,9.292892 14,10c0.707108,0.707108 -0.707108,1.292892 0,2c0.707108,0.707108 1,1 1,0c0,-1 0,0 0,0l0,-1l-1,-1" id="svg_33" fill-opacity="null" stroke-opacity="null" stroke-width="1.5" stroke="#000" fill="none"/>
  <path d="m241.5,77.5c19,-2 23.797485,-3.609329 29,-5c6.831207,-1.826042 12.907776,-2.496223 17,-3c2.977509,-0.366547 6,-1 8,-1c1,0 1,0 2,-1c0,0 1,0 2,0c0,0 1,-1 2,-1c1,0 1,0 2,-1l1,-1l0,-1l0,-1" id="svg_34" fill-opacity="null" stroke-opacity="null" stroke-width="1.5" stroke="#000" fill="none"/>
  <path d="m275.5,35.5c1,15 1.496216,17.907787 2,22c0.366547,2.977524 0.679626,6.025826 1,8c0.506531,3.121445 1,6 1,10c0,3 0,6 0,8c0,4 -0.496216,5.907784 -1,10c-0.366547,2.977524 0,5 0,7c0,2 0,3 0,3c0,1 0,2 0,2c1,1 1,1 1,1l-1,0" id="svg_35" fill-opacity="null" stroke-opacity="null" stroke-width="1.5" stroke="#000" fill="none"/>
  <path d="m227.5,120.5c15,-3 18,-3 22,-4c4,-1 10.01947,-1.60585 14,-2c5.074219,-0.502449 9.044678,-0.761368 15,-2c4.036713,-0.839584 7.878571,-1.493462 11,-2c2.961273,-0.480545 8,-1 11,-2l27,-3l7,-2" id="svg_36" fill-opacity="null" stroke-opacity="null" stroke-width="1.5" stroke="#000" fill="none"/>
  <path d="m320.5,60.5c-8,14 -9.147736,16.943413 -11,22c-1.087677,2.96933 -2.194092,5.888557 -5,11c-2.152039,3.920303 -4.310211,7.718987 -7,11c-2.285889,2.788322 -5.29361,5.726509 -9,10c-3.276001,3.777267 -5.726501,7.293617 -10,11c-3.777283,3.276016 -9.794891,8.220215 -13,11c-3.777283,3.276016 -7,6 -13,12c-3,3 -6.146805,5.863251 -8,8c-3.276016,3.777267 -6,7 -9,8l-9,5" id="svg_37" fill-opacity="null" stroke-opacity="null" stroke-width="1.5" stroke="#000" fill="none"/>
  <path d="m261.5,147.5c-3,17 -3,17 -3,19c0,2 1,4 1,5c0,1 1,2 1,2c1,0 1,0 2,-1c1,-1 1.418854,-1.418854 3,-3c1.581146,-1.581146 5.071808,-1.691238 10,-3c3.056335,-0.811661 7.07843,-0.789856 10,-2c4.131714,-1.711411 8.790253,-3.990234 16,-5c3.961334,-0.55481 6.907776,-1.496231 11,-2c3.970032,-0.488739 6.693451,0.458801 8,1c1.847748,0.765366 3.585785,-0.414215 5,1c0.707092,0.707108 1,2 2,4c1,2 1.320374,4.025818 1,6c-0.506531,3.121445 -3.34314,10.876053 -5,16c-1.268555,3.923111 -2.33197,8.229355 -4,12c-1.458649,3.297333 -3.486267,5.823746 -4,8c-0.459503,1.946503 -0.292908,3.292892 -1,4c-0.707092,0.707108 -1,1 -2,1c-1,0 -2,0 -2,0c-1,0 -2.292908,0.707108 -3,0c-0.707092,-0.707108 -1,-1 -1,-1c-1,0 -2,-1 -2,-1c-1,-1 -3,-3 -4,-5l-5,-5" id="svg_38" fill-opacity="null" stroke-opacity="null" stroke-width="1.5" stroke="#000" fill="none"/>
  <path d="m264.5,149.5c16,-1 18,-2 20,-2c1,0 3.025818,-0.679642 5,-1c3.121429,-0.506546 5,-2 7,-2c2,0 4,-1 5,-1c2,0 3,0 4,0c2,0 2,0 3,0c0,0 1,-1 2,-1c0,0 1,0 1,-1l1,-1" id="svg_39" fill-opacity="null" stroke-opacity="null" stroke-width="1.5" stroke="#000" fill="none"/>
  <path d="m365.5,63.5c19,-1 23.030487,-0.853207 33,-3c13.042694,-2.808559 17.106995,-3.08099 21,-4c2.176239,-0.513744 3,-1 4,-1l0,0l0,-1l0,-1" id="svg_40" fill-opacity="null" stroke-opacity="null" stroke-width="1.5" stroke="#000" fill="none"/>
  <path d="m363.5,80.5c7,13 7.497559,14.925797 8,20c0.295624,2.985397 0,6 0,9c0,2 1,4 1,5c0,1 0,2 0,3c0,1 0,1 0,2c0,0 0,1 0,1c1,0 1,1 1,1c2,0 3.071808,-0.691246 8,-2c3.056335,-0.811653 6.984528,-2.080742 12,-3c5.983093,-1.096603 12,-2 17,-3c5,-1 9.946716,-2.498741 17,-3c2.992462,-0.212669 7,0 10,0c3,0 6,-1 10,-1c1,0 0.693451,-0.458801 2,-1c0.923889,-0.382683 1,0 2,0c0,0 1,0 2,-1l0,0l0,-2l0,-1" id="svg_41" fill-opacity="null" stroke-opacity="null" stroke-width="1.5" stroke="#000" fill="none"/>
  <path d="m405.5,91.5c3,15 3,24 3,29c0,8 0,13 0,18c0,5 0,12 0,16c0,5 -0.496216,8.907791 -1,13c-0.488739,3.970032 -0.51944,8.038742 -1,11c-0.506531,3.121445 -1.493469,5.878555 -2,9c-0.160187,0.987091 0.38269,3.076126 0,4c-0.541199,1.306564 -1,2 -1,3c0,1 0,1 0,2c0,0 -1,1 -1,1c0,0 -1,0 -2,-1c-1,-1 -2,-3 -5,-5l-2,-2l-14,-7" id="svg_42" fill-opacity="null" stroke-opacity="null" stroke-width="1.5" stroke="#000" fill="none"/>
  <path d="m368.5,157.5c-9,16 -10.692535,18.186005 -12,20c-1.653809,2.29454 -2,3 -4,4l-2,1" id="svg_43" fill-opacity="null" stroke-opacity="null" stroke-width="1.5" stroke="#000" fill="none"/>
  <path d="m427.5,159.5c10,12 11,12 12,13c1,1 1.852722,1.173096 3,2c1.813995,1.307449 2,1 4,2c0,0 1,0 2,1c0,0 1,0 1,0c1,0 2,1 2,1l1,0l-1,1" id="svg_44" fill-opacity="null" stroke-opacity="null" stroke-width="1.5" stroke="#000" fill="none"/>
  <path d="m493.5,77.5c17,-3 18.162048,-3.374962 27,-6c8.190369,-2.432693 9,-3 10,-3l0,0l0,-1" id="svg_45" fill-opacity="null" stroke-opacity="null" stroke-width="1.5" stroke="#000" fill="none"/>
  <path d="m480.5,120.5c17,-1 20.953796,-1.207397 25,-2c6.939209,-1.359299 12,-1 16,-2c4,-1 7.925781,-2.497551 13,-3c0.995117,-0.098541 1,0 2,0c1,0 2,0 2,0c1,0 1,-1 2,-1c0,0 1,0 1,0c1,0 1,-1 2,-1c0,0 0,-1 1,-1l0,0l0,-1" id="svg_46" fill-opacity="null" stroke-opacity="null" stroke-width="1.5" stroke="#000" fill="none"/>
  <path d="m516.5,73.5c0,16 -0.48053,17.038734 0,20c0.506531,3.121445 1.497559,7.925797 2,13c0.492676,4.97567 0.498718,12.946724 1,20c0.425354,5.984909 0.498291,12.937958 1,19c0.824829,9.965927 -0.494873,17.020447 0,23c0.501709,6.062042 0.499023,10.953323 1,19c0.248535,3.992264 0,8 0,12c0,4 -1,7 -2,9l-2,4" id="svg_47" fill-opacity="null" stroke-opacity="null" stroke-width="1.5" stroke="#000" fill="none"/>
  <path d="m516.5,125.5c-7,15 -8.568695,15.782745 -11,23c-1.316284,3.907349 -2.49295,8.234009 -5,13c-1.678558,3.190994 -4,6 -7,10l-2,2l-2,2l-2,2" id="svg_48" fill-opacity="null" stroke-opacity="null" stroke-width="1.5" stroke="#000" fill="none"/>
  <path d="m517.5,120.5c13,10 14.076111,10.61731 15,11c2.613098,1.082397 3,3 4,4c2,2 3,3 4,4c1,1 2,2 2,2c1,1 2,1 2,1c1,1 1,1 2,1l1,0" id="svg_49" fill-opacity="null" stroke-opacity="null" stroke-width="1.5" stroke="#000" fill="none"/>
  <path d="m551.5,78.5c13,10 13.82373,12.486259 16,13c0.973267,0.229752 2,1 3,2l1,0l0,-1" id="svg_50" fill-opacity="null" stroke-opacity="null" stroke-width="1.5" stroke="#000" fill="none"/>
  <path d="m552.5,107.5c11,10 12.292908,11.292892 13,12c0.707092,0.707108 1,1 2,1c0,0 2,0 2,1l1,0l1,-1l2,0" id="svg_51" fill-opacity="null" stroke-opacity="null" stroke-width="1.5" stroke="#000" fill="none"/>
  <path d="m553.5,142.5c17,2 19.060791,1.359299 26,0c4.046204,-0.792603 9.87854,-2.493454 13,-3c3.948364,-0.640732 7.025818,-0.679642 9,-1c3.12146,-0.506546 5.076111,-0.61731 6,-1c1.30658,-0.541199 2,-1 4,-1c0,0 1,-1 2,-1c1,0 1,0 2,0c0,0 1,0 1,0l1,-1l1,0" id="svg_52" fill-opacity="null" stroke-opacity="null" stroke-width="1.5" stroke="#000" fill="none"/>
  <path d="m580.5,74.5c3,15 3,17 3,21c0,2 -0.199097,5.06456 -1,10c-0.506531,3.121445 -1,7 -1,12c0,4 0.493469,6.878555 1,10c0.48053,2.961258 1,7 1,10c0,3 0,5 0,9c0,2 0,5 0,7c0,2 1,4.837723 1,8c0,3.162277 -1,5 -1,8c0,4 0,6 0,8c0,2 0,4 0,6c0,2 0,5 0,7c0,2 0,5 1,7l0,7l0,1" id="svg_53" fill-opacity="null" stroke-opacity="null" stroke-width="1.5" stroke="#000" fill="none"/>
  <path stroke="#000" d="m640.5,79.5c17,-2 26.960144,-5.083984 29,-6c4.912537,-2.206062 6,-3 7,-3l0,0" id="svg_54" fill-opacity="null" stroke-opacity="null" stroke-width="1.5" fill="none"/>
  <path d="m661.5,58.5c6,18 5.704407,19.014603 6,22c0.502441,5.074203 1,9 1,13c0,3 -1,6 -2,6l0,0" id="svg_55" fill-opacity="null" stroke-opacity="null" stroke-width="1.5" stroke="#000" fill="none"/>
  <path d="m629.5,111.5c15,-3 17.038757,-2.519455 20,-3c3.12146,-0.506538 7,-2 12,-2c5,0 8,-1 13,-1c4,0 11.82373,-1.486259 14,-2c1.946472,-0.459503 3,0 5,-1c0,0 1,-1 2,-1l0,0l3,-2" id="svg_56" fill-opacity="null" stroke-opacity="null" stroke-width="1.5" stroke="#000" fill="none"/>
  <path d="m687.5,73.5c-4,14 -4.877808,15.007492 -5,16c-0.503784,4.092216 -3,7 -4,9c-1,2 -1.337463,5.310005 -3,8c-1.487,2.406006 -3.442993,4.63871 -5,7c-2.964478,4.495758 -3.714111,7.211678 -6,10c-2.689758,3.281013 -7.206787,9.812653 -9,12c-2.285889,2.78833 -4,6 -6,9l-1,2l-1,0l-3,1" id="svg_57" fill-opacity="null" stroke-opacity="null" stroke-width="1.5" stroke="#000" fill="none"/>
  <path d="m663.5,132.5c16,-5 18,-6 20,-6c2,0 2,0 2,1c0,2 -1.21167,3.714127 -4,6c-3.281006,2.689789 -4.486267,4.823746 -5,7c-0.229736,0.973251 -1.765381,2.152237 -1,4c0.541199,1.306564 3.065979,1.877655 5,3c3.118469,1.809723 5.519287,3.558197 8,7c1.307434,1.813995 2.733093,5.044952 2,11c-0.503784,4.092209 -2,8 -3,12c-1,4 -4,8 -5,10c-1,2 -1,4 -2,5c-1,1 -2,2 -3,2c0,0 0,0 -1,1c0,0 0.707092,0.292892 0,1c-0.707092,0.707108 -1,0 -2,0c0,0 0,-1 0,-1c-1,-1 -0.61731,-2.076126 -1,-3c-0.541199,-1.306564 -4,-3 -9,-6l-1,0l-4,-2" id="svg_58" fill-opacity="null" stroke-opacity="null" stroke-width="1.5" stroke="#000" fill="none"/>
  <path d="m647.5,180.5c15,-7 16,-7 19,-9c6,-4 14,-10 17,-11c3,-1 5.504333,-1.593994 10,-4c1.246887,-0.667313 1.852722,-1.173096 3,-2c1.813965,-1.307449 2,-1 3,-1c0,0 0.292908,-0.292892 1,-1c0.707092,-0.707108 1,0 2,-1l0,0l0,-2l-1,-1" id="svg_59" fill-opacity="null" stroke-opacity="null" stroke-width="1.5" stroke="#000" fill="none"/>
  <path d="m711.5,64.5c4,17 2.018372,21.712006 1,27c-0.567322,2.945869 -0.547058,7.112366 -2,12c-1.534485,5.161911 -3,9 -5,13c-2,4 -4,7 -7,9l-1,1" id="svg_60" fill-opacity="null" stroke-opacity="null" stroke-width="1.5" stroke="#000" fill="none"/>
  <path d="m714.5,95.5c17,-1 18.82373,-1.486259 21,-2c1.946472,-0.459503 4.012939,0.160179 5,0c3.12146,-0.506538 5.82373,-2.486259 8,-3c1.946472,-0.459503 7.82373,-2.486259 10,-3c0.973267,-0.229752 2,-1 5,-2l1,-2" id="svg_61" fill-opacity="null" stroke-opacity="null" stroke-width="1.5" stroke="#000" fill="none"/>
  <path d="m743.5,98.5c-2,18 -1.633423,19.022476 -2,22c-0.503784,4.092216 -0.533752,7.096603 -2,13c-0.762268,3.069031 -2.569519,7.132996 -4,11c-1.551575,4.194351 -4.371338,8.74675 -7,13c-2.351135,3.80423 -4.172485,7.876282 -7,12c-5.335022,7.780609 -8,11 -11,15l-4,4l-4,3l-5,2" id="svg_62" fill-opacity="null" stroke-opacity="null" stroke-width="1.5" stroke="#000" fill="none"/>
  <path d="m713.5,107.5c8,13 9.496216,13.907784 10,18c0.366577,2.977524 1.190308,5.881516 3,9c1.122314,1.93399 1.789856,5.07843 3,8c1.711426,4.131714 4.190308,5.881516 6,9c1.122314,1.93399 2.723999,5.222733 6,9c1.85321,2.136749 3.692566,4.186005 5,6c0.826904,1.147263 2,3 3,4c1,1 1.474243,2.149353 2,3c1.175598,1.902115 2.852722,2.173096 4,3c1.813965,1.307449 4.852722,4.173096 6,5c1.813965,1.307449 3.934143,2.144287 6,3c2.92157,1.210144 6,3 9,4l0,0l3,1" id="svg_63" fill-opacity="null" stroke-opacity="null" stroke-width="1.5" stroke="#000" fill="none"/>
  <path d="m242.5,245.5c13,9 13.714111,9.21167 16,12c0.896606,1.093658 1.458801,1.693451 2,3c0.38269,0.923889 1,2 1,2l0,1l-1,0l-1,0" id="svg_64" fill-opacity="null" stroke-opacity="null" stroke-width="1.5" stroke="#000" fill="none"/>
  <path d="m233.5,274.5c17,-2 21.01947,-2.605835 25,-3c5.074219,-0.502441 8.878571,-2.493469 12,-3c2.961273,-0.48056 6.309998,-0.337494 9,-2c1.203003,-0.7435 1.61731,-0.923889 2,0c0.541199,1.306549 -1,2 -2,3c-1,1 -4.21167,3.714111 -7,6c-3.281006,2.689789 -6.085205,7.753784 -12,14c-4.402679,4.649353 -8.729614,8.228851 -13,13c-5.659012,6.322632 -11,11 -18,18c-6,6 -9,8 -16,14l-8,6" id="svg_65" fill-opacity="null" stroke-opacity="null" stroke-width="1.5" stroke="#000" fill="none"/>
  <path d="m252.5,297.5c4,17 4,19 4,21c0,2 -0.493469,5.878571 -1,9c-0.480545,2.961273 0.430496,6.132996 -1,10c-0.775803,2.097168 -0.679642,5.025818 -1,7c-0.506546,3.121429 -2,7 -2,9c0,2 0,4 0,8c0,2 -1,4 -1,6c0,2 0,5 0,7c0,1 0,3 0,5c0,2 0,3 0,4c0,2 0,3 0,4c0,2 0.493454,2.878571 1,6c0.160187,0.987091 1,2 1,3l-1,1l0,2" id="svg_66" fill-opacity="null" stroke-opacity="null" stroke-width="1.5" stroke="#000" fill="none"/>
  <path d="m256.5,297.5c11,11 11.934143,11.144287 14,12c2.92157,1.210144 4.963837,1.115875 8,2c3.958679,1.152771 4.823761,2.486267 7,3c0.973236,0.229767 3,1 4,2c0,0 1,1 2,1l0,0l1,0l0,0" id="svg_67" fill-opacity="null" stroke-opacity="null" stroke-width="1.5" stroke="#000" fill="none"/>
  <path d="m291.5,270.5c6,17 6.493469,19.878571 7,23c0.800903,4.935425 0,6 -1,8l0,1" id="svg_68" fill-opacity="null" stroke-opacity="null" stroke-width="1.5" stroke="#000" fill="none"/>
  <path d="m294.5,265.5c15,-4 19.977356,-5.095428 24,-6c4.974792,-1.118652 11.01947,-1.605835 15,-2c5.074219,-0.502441 8.064575,-1.800919 13,-1c3.121429,0.506531 4.878571,2.493469 8,3c1.974182,0.320374 4,1 5,1c1,0 1,1 -8,35l-4,10" id="svg_69" fill-opacity="null" stroke-opacity="null" stroke-width="1.5" stroke="#000" fill="none"/>
  <path d="m294.5,310.5c19,-1 19.991486,-1.061432 27,-2c7.990936,-1.070129 13,-3 17,-3l3,-1l2,0l2,0" id="svg_70" fill-opacity="null" stroke-opacity="null" stroke-width="1.5" stroke="#000" fill="none"/>
  <path d="m306.5,315.5c1,17 0.320374,18.025818 0,20c-1.013092,6.242889 -2.357239,11.254059 -5,17c-2.436493,5.297485 -6,13 -9,18l0,1l-5,6" id="svg_71" fill-opacity="null" stroke-opacity="null" stroke-width="1.5" stroke="#000" fill="none"/>
  <path d="m321.5,309.5c0,18 0,21 0,24c0,2 -1,7 -1,11c0,3 -1.148773,6.133759 0,11c0.513733,2.176239 1.274323,4.884949 2,7c1.654816,4.823029 2,7 3,9c1,2 1.692535,4.186005 3,6c0.826904,1.147278 2.186005,2.692535 4,4c2.294525,1.653809 4.036102,2.621796 6,3c5.287994,1.018372 7,2 9,2c2,0 3.837708,1 7,1c3.162292,0 4.878571,-1.493469 8,-2c1.974182,-0.320374 4.693451,-1.458801 6,-2c1.847748,-0.765381 4.824432,-0.0979 6,-2c0.525726,-0.850647 0.292908,-1.292908 1,-2c0.707092,-0.707092 2,-1 2,-2c0,-1 1,-3 0,-9l-1,-4" id="svg_72" fill-opacity="null" stroke-opacity="null" stroke-width="1.5" stroke="#000" fill="none"/>
  <path d="m385.5,312.5c15,1 17.838074,0.534485 23,-1c4.887634,-1.452942 10.143585,-1.382477 20,-4c6.112671,-1.623322 11.838074,-3.465515 17,-5c4.887634,-1.452942 10,-3 15,-4l6,-5" id="svg_73" fill-opacity="null" stroke-opacity="null" stroke-width="1.5" stroke="#000" fill="none"/>
  <path d="m431.5,245.5c6,15 6.212677,18.007538 6,21c-0.501251,7.053284 -2,12 -3,16c-1,4 -1.359283,9.051636 -2,13c-0.506531,3.121429 -1.496216,7.907776 -2,12c-0.488739,3.970032 0,7 -1,10c-1,3 -1.847229,6.041321 -3,10c-0.884125,3.036163 -1.691254,6.071808 -3,11c-0.811646,3.056335 -3.115875,5.963837 -4,9c-1.152771,3.958679 -1,7 -2,10c-1,3 -3.210052,5.850769 -6,10c-3.253601,4.838806 -7,9 -10,13l-4,4l-5,5l-1,1" id="svg_74" fill-opacity="null" stroke-opacity="null" stroke-width="1.5" stroke="#000" fill="none"/>
  <path d="m429.5,306.5c10,12 10.234619,13.152252 11,15c0.541199,1.306549 2.458801,2.693451 3,4c0.765381,1.847748 0.692535,3.186005 2,5c0.826904,1.147278 0.692535,2.186005 2,4c0.826904,1.147278 1,3 2,4c1,1 1.714111,3.21167 4,6c0.896606,1.093658 2,3 3,4c2,2 3,4 4,5c2,2 3,3 4,4c2,2 4.186005,2.692535 6,4c2.294525,1.653809 3.053497,2.540497 5,3c2.176239,0.513733 3.852722,3.173096 5,4c1.813995,1.307465 3.186005,2.692535 5,4c2.294525,1.653809 5,3 7,5l1,0l4,1" id="svg_75" fill-opacity="null" stroke-opacity="null" stroke-width="1.5" stroke="#000" fill="none"/>
  <path d="m540.5,231.5c-540.5,-231.5 -540.5,-231.5 -540.5,-231.5l549.5,246.5l0,0l0,1" id="svg_76" fill-opacity="null" stroke-opacity="null" stroke-width="1.5" stroke="#000" fill="none"/>
  <path d="m534.5,245.5c12,10 14,12 15,14c1,2 2.173096,2.852722 3,4c1.307434,1.813995 2,3 3,4l0,0l1,0" id="svg_78" fill-opacity="null" stroke-opacity="null" stroke-width="1.5" stroke="#000" fill="none"/>
  <path d="m497.5,269.5c0,16 0,17 0,21l-1,8l-3,13" id="svg_79" fill-opacity="null" stroke-opacity="null" stroke-width="1.5" stroke="#000" fill="none"/>
  <path d="m500.5,290.5c15,-1 23.932983,-4.233185 34,-7c7.951355,-2.185364 13.112366,-2.547058 18,-4c5.161926,-1.534485 9.946716,-3.498749 17,-4c3.989929,-0.283569 8,-1 37,-2l8,4l-5,10l-11,6" id="svg_80" fill-opacity="null" stroke-opacity="null" stroke-width="1.5" stroke="#000" fill="none"/>
  <path d="m519.5,307.5c20,-1 24.017212,-1.933502 28,-3c7.032349,-1.883118 11.07843,-2.789856 14,-4c2.065857,-0.855713 5,-1 7,-2l1,-1l0,0l1,-1" id="svg_81" fill-opacity="null" stroke-opacity="null" stroke-width="1.5" stroke="#000" fill="none"/>
  <path stroke="#000" d="m543.5,308.5c-9,13 -9.428223,14.42334 -14,20c-0.896606,1.093658 -3,3 -6,6l0,1" id="svg_82" fill-opacity="null" stroke-opacity="null" stroke-width="1.5" fill="none"/>
  <path d="m541.5,308.5c12,12 12.206787,11.812653 14,14c2.285889,2.78833 3.513,5.593994 5,8c1.662537,2.690002 2,7 3,10c1,3 1.496216,5.907776 2,10c0.488708,3.970032 1.48053,6.038727 1,9c-0.506531,3.121429 -1,6 -1,10c0,3 -1,5 -1,8c0,4 -1,7 -1,9c0,2 -0.61731,4.076111 -1,5c-0.541199,1.306549 -1.458801,1.693451 -2,3c-0.38269,0.923889 -0.61731,2.076111 -1,3c-0.541199,1.306549 -1.292908,0.292908 -2,1c-0.707092,0.707092 0,1 0,1c-1,0 -1,0 -2,0c-1,0 -3,-2 -5,-4l-3,-3l-6,-4l-1,-1" id="svg_83" fill-opacity="null" stroke-opacity="null" stroke-width="1.5" stroke="#000" fill="none"/>
  <path d="m546.5,324.5c-7,15 -9,17 -11,20l-5,5l-5,5l-4,3" id="svg_84" fill-opacity="null" stroke-opacity="null" stroke-width="1.5" stroke="#000" fill="none"/>
  <path d="m559.5,337.5c-7,14 -8.319519,17.650879 -16,25c-4.626404,4.426788 -11,9 -17,14l-6,4" id="svg_85" fill-opacity="null" stroke-opacity="null" stroke-width="1.5" stroke="#000" fill="none"/>
  <path d="m580.5,315.5c-9,13 -11.228882,13.729614 -16,18c-1.053772,0.943176 -3,2 -3,3l0,0" id="svg_86" fill-opacity="null" stroke-opacity="null" stroke-width="1.5" stroke="#000" fill="none"/>
  <path d="m563.5,333.5c12,8 13.065979,8.877655 15,10c3.118469,1.809723 5,3 7,4c2,1 4,3 5,4c2,2 4.173096,3.852722 5,5c1.307434,1.813995 3,3 5,5c3,3 4,4 6,6c1,1 4,3 6,4l2,2l4,1l4,0" id="svg_87" fill-opacity="null" stroke-opacity="null" stroke-width="1.5" stroke="#000" fill="none"/>
  <path d="m182.5,464.5c18,0 20,-1 25,-2c5,-1 9.925797,-2.497559 15,-3c3.98053,-0.394165 6,0 8,0l0,0l1,0" id="svg_88" fill-opacity="null" stroke-opacity="null" stroke-width="1.5" stroke="#000" fill="none"/>
  <path stroke="#000" d="m143.5,515.5c21,-1 24.942963,-2.21759 36,-5c12.938293,-3.255859 31,-7 40,-10l9,-1l42,-6" id="svg_89" fill-opacity="null" stroke-opacity="null" stroke-width="1.5" fill="none"/>
  <path d="m191.5,516.5c-1,20 -2.721466,20.670715 -7,31c-2.420303,5.84314 -5,10 -6,11l-5,4" id="svg_90" fill-opacity="null" stroke-opacity="null" stroke-width="1.5" stroke="#000" fill="none"/>
  <path d="m231.5,502.5c-4,18 -5,21 -5,24c0,4 0,8 0,11c0,3 -0.430496,7.132996 1,11c0.775803,2.097168 0.714127,4.21167 3,7c0.896591,1.093689 2.852737,3.173096 4,4c1.813995,1.307434 4,2 7,3c3,1 4.884964,1.274292 7,2c4.823029,1.654846 7.038742,1.51947 10,2c3.121429,0.506531 7,2 10,2c3,0 6.014587,0.295593 9,0c5.074219,-0.502441 7.823761,-1.486267 10,-2c1.946503,-0.459534 3.076111,-0.61731 4,-1c1.306549,-0.541199 1,-1 1,-2c0,-1 -0.234619,-2.152222 -1,-4c-0.541199,-1.30658 -2,-9 -2,-10l-2,-5" id="svg_91" fill-opacity="null" stroke-opacity="null" stroke-width="1.5" stroke="#000" fill="none"/>
  <path d="m329.5,466.5c3,15 4.065399,16.978973 5,20c2.151581,6.954895 3.188354,9.943665 4,13c1.308746,4.928192 1,7 2,9l0,0l0,0" id="svg_92" fill-opacity="null" stroke-opacity="null" stroke-width="1.5" stroke="#000" fill="none"/>
  <path d="m336.5,459.5c16,-2 18.133759,-1.851227 23,-3c2.176239,-0.513733 8.977356,-2.095428 13,-3c4.974792,-1.118652 10.080261,-0.31073 13,-1c2.176239,-0.513733 4,-1 6,-1c3,0 5,0 8,0c2,0 4,-1 6,0l10,5l-7,33l-11,18" id="svg_93" fill-opacity="null" stroke-opacity="null" stroke-width="1.5" stroke="#000" fill="none"/>
  <path d="m341.5,486.5c17,-1 19.907776,-1.496216 24,-2c3.970032,-0.488739 7.907776,-0.496216 12,-1c3.970032,-0.488739 8.878571,-0.493469 12,-1c2.961273,-0.48056 5,0 7,0c2,0 3,-1 3,-1l0,0" id="svg_94" fill-opacity="null" stroke-opacity="null" stroke-width="1.5" stroke="#000" fill="none"/>
  <path d="m341.5,507.5c15,-4 17.152252,-3.234619 19,-4c1.306549,-0.541199 3,-1 6,-1c2,0 3,0 5,0c2,0 3.823761,0.486267 6,1c0.973236,0.229767 2,1 4,1c1,0 2,1 4,1c1,0 2,1 3,1l4,0l0,0l2,-1" id="svg_95" fill-opacity="null" stroke-opacity="null" stroke-width="1.5" stroke="#000" fill="none"/>
  <path d="m321.5,544.5c19,1 21,1 27,1c5,0 12,1 17,1c8,0 14,0 19,0c4,0 10,0 14,0l29,3l10,-1l2,-1" id="svg_96" fill-opacity="null" stroke-opacity="null" stroke-width="1.5" stroke="#000" fill="none"/>
  <path d="m457.5,481.5c-5,16 -5.944641,18.019012 -7,21c-2.85141,8.054169 -3,8 -3,8l1,0" id="svg_97" fill-opacity="null" stroke-opacity="null" stroke-width="1.5" stroke="#000" fill="none"/>
  <path d="m487.5,482.5c10,12 11,13 12,14c1,1 1.173096,1.852722 2,3c1.307465,1.813995 1.693451,2.458801 3,3c0.923889,0.38269 1,1 2,1c0,0 1,0 1,0l1,-1" id="svg_98" fill-opacity="null" stroke-opacity="null" stroke-width="1.5" stroke="#000" fill="none"/>
  <path d="m470.5,419.5c4,16 4.458801,16.693451 5,18c1.148041,2.771637 0.51944,5.038727 1,8c0.506531,3.121429 1,7 1,12c0,7 -0.183228,12.966827 -1,18c-1.291443,7.95816 -0.389069,12.037476 -1,17c-0.503784,4.092224 -1.605835,11.01947 -2,15c-0.502441,5.074219 -1,9 -1,15c0,4 1,8 1,13c0,4 0,7 0,10c0,2 -0.496216,4.907776 -1,9c-0.244354,1.984985 -0.459503,4.053528 0,6c0.513733,2.17627 1,4 1,5l0,1l0,1" id="svg_99" fill-opacity="null" stroke-opacity="null" stroke-width="1.5" stroke="#000" fill="none"/>
  <path d="m515.5,473.5c15,-5 19,-5 23,-5c3,0 6,-1 11,-1c2,0 3.82373,0.486267 6,1c0.973267,0.229767 1.82373,0.486267 4,1c0.973267,0.229767 1.69342,-0.541199 3,0c0.923889,0.38269 1.292908,0.292908 2,1c0.707092,0.707092 1,1 1,2c0,1 -0.458801,3.693451 -1,5c-0.765381,1.847748 -0.789856,5.07843 -2,8c-1.711426,4.131714 -4,7 -7,10c-3,3 -7,8 -10,10l-2,2l-1,0l-1,0" id="svg_100" fill-opacity="null" stroke-opacity="null" stroke-width="1.5" stroke="#000" fill="none"/>
  <path d="m489.5,517.5c17,1 21,1 25,1c5,0 8.925781,-0.497559 14,-1c4.975647,-0.492676 10.070923,-0.642944 21,-3c4.030457,-0.869263 9,-2 13,-3l37,-5l4,-3" id="svg_101" fill-opacity="null" stroke-opacity="null" stroke-width="1.5" stroke="#000" fill="none"/>
  <path d="m539.5,436.5c0,16 -0.492676,18.024323 0,23c0.502441,5.074219 1,10 1,18c0,6 -1,11 -1,16c0,4 -1.345154,10.176971 -3,15c-2.177063,6.345093 -5.194092,10.88855 -8,16c-3.228027,5.880432 -5.167969,10.920349 -7,15c-2.206055,4.912537 -5,12 -8,17l-3,4l-5,5" id="svg_102" fill-opacity="null" stroke-opacity="null" stroke-width="1.5" stroke="#000" fill="none"/>
  <path d="m539.5,522.5c11,12 12.186035,12.692566 14,14c2.294556,1.653809 5,4 6,5c2,2 5.186035,3.692566 7,5c2.294556,1.653809 4.309998,2.337463 7,4c2.406006,1.487 4.868286,3.288574 9,5c2.92157,1.210144 5,1 8,2l4,0" id="svg_103" fill-opacity="null" stroke-opacity="null" stroke-width="1.5" stroke="#000" fill="none"/>
  <path d="m625.5,439.5c17,0 19.162048,-0.374969 28,-3c8.190369,-2.432709 15,-4 18,-4c2,0 3,0 5,0l0,0l2,0l0,-1" id="svg_104" fill-opacity="null" stroke-opacity="null" stroke-width="1.5" stroke="#000" fill="none"/>
  <path d="m624.5,453.5c-1,16 0,17 0,20c0,7 1,10 1,13c0,6 0,7 0,8c0,1 0,2 0,3c0,0 0,0 1,1c0,0 1,0 2,0c3,0 6.029968,-0.511261 10,-1c4.092224,-0.503784 10,-2 16,-3c6,-1 12,-2 20,-4c4,-1 9.037476,-1.389069 14,-2c4.092224,-0.503784 7.69342,-1.458801 9,-2c0.923889,-0.38269 2,0 3,0c0,0 1,0 1,0c1,1 2,0 3,0c0,0 1,0 1,0c1,-1 2,-2 3,-3l0,0" id="svg_105" fill-opacity="null" stroke-opacity="null" stroke-width="1.5" stroke="#000" fill="none"/>
  <path d="m663.5,469.5c-1,17 -1,17 -1,19c0,3 0,6 0,8c0,4 -0.493469,6.878571 -1,10c-0.48053,2.961273 0.48053,6.038757 0,9c-0.506531,3.12146 -1,6 -1,9c0,4 -0.493469,5.87854 -1,9c-0.320374,1.974182 0,4 0,7c0,2 -0.459534,4.053528 0,6c0.513733,2.17627 1,4 1,5c0,0 0,1 1,3c0,0 -0.458801,0.69342 -1,2c-0.38269,0.923889 -1,1 -1,2c0,0 -1,-0.414185 -1,1c0,1.414185 0,1 0,1c-1,0 -1,1 -2,1c0,0 -0.076111,-0.61731 -1,-1c-2.613098,-1.082397 -6,-5 -7,-6l-8,-4" id="svg_106" fill-opacity="null" stroke-opacity="null" stroke-width="1.5" stroke="#000" fill="none"/>
  <path d="m626.5,527.5c-10,14 -10.714111,16.21167 -13,19c-3.586365,4.374695 -6,6 -8,9l-1,2" id="svg_107" fill-opacity="null" stroke-opacity="null" stroke-width="1.5" stroke="#000" fill="none"/>
  <path d="m682.5,522.5c11,12 12.520142,13.409668 16,17c4.456421,4.597839 9,8 14,13l2,2l6,6l1,0" id="svg_108" fill-opacity="null" stroke-opacity="null" stroke-width="1.5" stroke="#000" fill="none"/>
 </g>
</svg>